<svg id="Component_4_50" data-name="Component 4 – 50" xmlns="http://www.w3.org/2000/svg" width="77.128" height="31.109" viewBox="0 0 77.128 31.109">
  <path id="Path_1" data-name="Path 1" d="M15.472,0A15.555,15.555,0,1,1,0,15.554,15.514,15.514,0,0,1,15.472,0ZM5.72,17.972v-.746h-2.1V13.584H2.777v4.388Zm1.42,0V13.548H6.3v4.424Zm2.771,0,1.5-4.424h-.895L9.489,16.822,8.431,13.548H7.516L9.01,17.972Zm2.774,0V16.125h.172a1.321,1.321,0,0,1,.425.05.647.647,0,0,1,.254.184,6.264,6.264,0,0,1,.445.65l.61.963H15.6l-.51-.864a5.02,5.02,0,0,0-.48-.717,1.967,1.967,0,0,0-.452-.372,1.3,1.3,0,0,0,.827-.408,1.224,1.224,0,0,0,.276-.823,1.339,1.339,0,0,0-.182-.7.979.979,0,0,0-.486-.424,2.887,2.887,0,0,0-.975-.119H11.841v4.424Zm0-3.676h.659q.513,0,.616.015a.506.506,0,0,1,.318.173.547.547,0,0,1,.113.36.6.6,0,0,1-.085.332.46.46,0,0,1-.237.188,3.047,3.047,0,0,1-.758.054h-.625Zm3.749,3.149a1.915,1.915,0,0,0,1.483.6,1.894,1.894,0,0,0,1.472-.605,2.4,2.4,0,0,0,.55-1.676,2.408,2.408,0,0,0-.555-1.686,1.906,1.906,0,0,0-1.478-.607,2.2,2.2,0,0,0-.9.175,1.641,1.641,0,0,0-.541.4,2.085,2.085,0,0,0-.389.606,2.971,2.971,0,0,0-.191,1.135A2.367,2.367,0,0,0,16.434,17.445Zm.639-2.83a1.124,1.124,0,0,1,1.678-.005,1.733,1.733,0,0,1,.314,1.134,1.759,1.759,0,0,1-.323,1.154,1.087,1.087,0,0,1-1.662,0,1.721,1.721,0,0,1-.328-1.139A1.738,1.738,0,0,1,17.073,14.615Zm5.144,3.357h1.588a2.38,2.38,0,0,0,.747-.095,1.454,1.454,0,0,0,.594-.353,1.974,1.974,0,0,0,.447-.781,3.058,3.058,0,0,0,.129-.942,3.459,3.459,0,0,0-.137-1.046,1.977,1.977,0,0,0-.4-.717,1.386,1.386,0,0,0-.63-.407,2.876,2.876,0,0,0-.8-.085H22.217ZM23.44,14.3a3.642,3.642,0,0,1,.693.042.8.8,0,0,1,.391.208,1.034,1.034,0,0,1,.239.429,2.781,2.781,0,0,1,.086.787,3.034,3.034,0,0,1-.086.811.952.952,0,0,1-.22.427.765.765,0,0,1-.341.184,2.186,2.186,0,0,1-.51.042h-.63V14.3Zm6.176,3.676v-.746H27.281v-1.2h2.1v-.746h-2.1V14.3h2.255v-.748h-3.1v4.424Zm3.2,0V16.125h.172a1.328,1.328,0,0,1,.425.05.653.653,0,0,1,.254.184,6.308,6.308,0,0,1,.444.65l.61.963h1.01l-.511-.864a4.949,4.949,0,0,0-.48-.717,1.944,1.944,0,0,0-.452-.372,1.3,1.3,0,0,0,.827-.408,1.22,1.22,0,0,0,.277-.823,1.331,1.331,0,0,0-.182-.7.975.975,0,0,0-.486-.424,2.885,2.885,0,0,0-.974-.119H31.971v4.424Zm0-3.676h.658q.513,0,.616.015a.506.506,0,0,1,.318.173.552.552,0,0,1,.113.36.6.6,0,0,1-.086.332.456.456,0,0,1-.237.188,3.039,3.039,0,0,1-.758.054h-.625Zm6.55,3.676v-.746H37.029v-1.2h2.1v-.746h-2.1V14.3h2.255v-.748h-3.1v4.424Zm3.042-.915a.822.822,0,0,1-.579.226.9.9,0,0,1-.742-.356,1.941,1.941,0,0,1-.285-1.194,1.807,1.807,0,0,1,.29-1.144.927.927,0,0,1,.754-.353.853.853,0,0,1,.571.2.947.947,0,0,1,.31.544l.835-.211a1.779,1.779,0,0,0-.428-.815,1.684,1.684,0,0,0-1.246-.48,1.8,1.8,0,0,0-1.417.611,2.51,2.51,0,0,0-.539,1.715,2.388,2.388,0,0,0,.536,1.647,1.754,1.754,0,0,0,1.369.6,1.716,1.716,0,0,0,1.11-.352,1.963,1.963,0,0,0,.626-1.076l-.817-.274A1.341,1.341,0,0,1,42.406,17.057Zm4.855.915v-.746h-2.1V13.584h-.844v4.388Zm2.7-4.424h-.892l-1.628,4.424h.895l.346-1.005H50.35l.365,1.005h.917Zm-1.021,2.673.565-1.641.576,1.641Zm3.914,1.751V14.49l.827,3.482h.813l.829-3.482v3.482h.785V13.548H54.84l-.75,3.018-.758-3.018H52.069v4.424Zm6.188-4.424h-.893l-1.627,4.424h.895l.345-1.005h1.672l.364,1.005h.918ZM58.02,16.221l.565-1.641.575,1.641Zm5.469.836a.821.821,0,0,1-.579.226.9.9,0,0,1-.741-.356,1.935,1.935,0,0,1-.285-1.194,1.807,1.807,0,0,1,.289-1.144.927.927,0,0,1,.754-.353.856.856,0,0,1,.572.2.951.951,0,0,1,.309.544l.835-.211a1.763,1.763,0,0,0-.428-.815,1.683,1.683,0,0,0-1.245-.48,1.8,1.8,0,0,0-1.418.611,2.51,2.51,0,0,0-.538,1.715,2.388,2.388,0,0,0,.536,1.647,1.754,1.754,0,0,0,1.369.6A1.72,1.72,0,0,0,64.03,17.7a1.973,1.973,0,0,0,.626-1.076l-.818-.274A1.341,1.341,0,0,1,63.489,17.057Zm-.869,2.178a1.218,1.218,0,0,0,.792-.227.546.546,0,0,0,.021-.835.791.791,0,0,0-.542-.166,1.405,1.405,0,0,0-.479.08l-.074.3a1.225,1.225,0,0,1,.373-.06.415.415,0,0,1,.273.074.229.229,0,0,1-.005.366.606.606,0,0,1-.377.1,4.659,4.659,0,0,1-.538-.034v.357A2.4,2.4,0,0,0,62.619,19.236Zm3.139-1.79a1.914,1.914,0,0,0,1.482.6,1.894,1.894,0,0,0,1.472-.605,2.4,2.4,0,0,0,.55-1.676,2.411,2.411,0,0,0-.554-1.686,1.906,1.906,0,0,0-1.478-.607,2.2,2.2,0,0,0-.9.175,1.649,1.649,0,0,0-.541.4,2.1,2.1,0,0,0-.389.606,2.972,2.972,0,0,0-.19,1.135A2.367,2.367,0,0,0,65.758,17.445Zm.639-2.83a1.123,1.123,0,0,1,1.678-.005,1.729,1.729,0,0,1,.315,1.134,1.759,1.759,0,0,1-.324,1.154,1.086,1.086,0,0,1-1.661,0,1.721,1.721,0,0,1-.328-1.139A1.734,1.734,0,0,1,66.4,14.615ZM66.6,13.1a.176.176,0,0,1,.142-.059,1.19,1.19,0,0,1,.383.106c.175.071.284.112.328.123a.848.848,0,0,0,.191.022.447.447,0,0,0,.363-.175.955.955,0,0,0,.145-.583h-.372a.339.339,0,0,1-.077.2.21.21,0,0,1-.153.061.914.914,0,0,1-.355-.107,2.242,2.242,0,0,0-.313-.13.711.711,0,0,0-.185-.023.468.468,0,0,0-.373.171.729.729,0,0,0-.145.487c0,.027,0,.063,0,.108h.366A.318.318,0,0,1,66.6,13.1Zm6.5,4.872v-.746H70.765v-1.2h2.1v-.746h-2.1V14.3H73.02v-.748h-3.1v4.424Zm1.009-.309a1.746,1.746,0,0,0,1.217.388,2.238,2.238,0,0,0,.91-.162A1.213,1.213,0,0,0,76.8,17.4a1.462,1.462,0,0,0,.032-1.417,1.2,1.2,0,0,0-.462-.45,3.951,3.951,0,0,0-.911-.319,2.15,2.15,0,0,1-.776-.3.348.348,0,0,1-.125-.269.329.329,0,0,1,.135-.275.925.925,0,0,1,.576-.16.814.814,0,0,1,.534.15.769.769,0,0,1,.233.489l.844-.039a1.325,1.325,0,0,0-.418-.975,1.705,1.705,0,0,0-1.186-.365,1.975,1.975,0,0,0-.822.155,1.146,1.146,0,0,0-.522.447,1.212,1.212,0,0,0,.2,1.522,2.243,2.243,0,0,0,.953.438q.527.138.676.193a.7.7,0,0,1,.3.192.417.417,0,0,1,.087.267.552.552,0,0,1-.207.427.9.9,0,0,1-.614.183.877.877,0,0,1-.612-.205,1.08,1.08,0,0,1-.3-.642l-.822.085A1.727,1.727,0,0,0,74.11,17.663ZM34.081,24.217a1.27,1.27,0,0,1-.823.272,1.446,1.446,0,0,1-.743-.2,1.181,1.181,0,0,1-.506-.6,2.5,2.5,0,0,1-.162-.942,2.449,2.449,0,0,1,.137-.812,1.245,1.245,0,0,1,.476-.627,1.447,1.447,0,0,1,.843-.233,1.2,1.2,0,0,1,.728.21,1.3,1.3,0,0,1,.442.672l.569-.13a1.672,1.672,0,0,0-.623-.909,1.837,1.837,0,0,0-1.1-.323,2.235,2.235,0,0,0-1.061.255,1.754,1.754,0,0,0-.742.747,2.417,2.417,0,0,0-.262,1.152,2.784,2.784,0,0,0,.231,1.134,1.755,1.755,0,0,0,.674.806,2.133,2.133,0,0,0,1.15.278,1.845,1.845,0,0,0,1.157-.362,1.877,1.877,0,0,0,.655-1.052l-.579-.142A1.373,1.373,0,0,1,34.081,24.217Zm1.891.336a1.452,1.452,0,0,0,1.076.413,1.6,1.6,0,0,0,.765-.188,1.279,1.279,0,0,0,.535-.527,1.974,1.974,0,0,0,.183-.931,1.545,1.545,0,0,0-.415-1.144,1.449,1.449,0,0,0-1.069-.414,1.506,1.506,0,0,0-1,.341,1.551,1.551,0,0,0-.49,1.261A1.615,1.615,0,0,0,35.972,24.552Zm.408-2.069a.905.905,0,0,1,1.333,0,1.234,1.234,0,0,1,.267.861,1.31,1.31,0,0,1-.266.9.907.907,0,0,1-1.334,0,1.593,1.593,0,0,1,0-1.762ZM39.7,24.9v-1.59a1.861,1.861,0,0,1,.086-.641.664.664,0,0,1,.28-.337.8.8,0,0,1,.42-.116.505.505,0,0,1,.429.173.851.851,0,0,1,.132.52V24.9h.536v-1.78a.926.926,0,0,1,.221-.688.764.764,0,0,1,.555-.216.609.609,0,0,1,.323.085.437.437,0,0,1,.189.221,1.387,1.387,0,0,1,.052.449V24.9h.535v-2.1a1.057,1.057,0,0,0-.254-.778.983.983,0,0,0-.725-.253,1.147,1.147,0,0,0-.98.537.77.77,0,0,0-.318-.4,1.076,1.076,0,0,0-.578-.141,1.157,1.157,0,0,0-.564.137,1.117,1.117,0,0,0-.4.363v-.43h-.481V24.9Zm5.092,1.174V24.578a1.091,1.091,0,0,0,.351.277,1.043,1.043,0,0,0,.482.11,1.336,1.336,0,0,0,.7-.2,1.282,1.282,0,0,0,.507-.577,1.983,1.983,0,0,0,.175-.847,2.028,2.028,0,0,0-.158-.806,1.251,1.251,0,0,0-.469-.57,1.283,1.283,0,0,0-.716-.2,1.1,1.1,0,0,0-.528.118,1.187,1.187,0,0,0-.391.35v-.4h-.49V26.07ZM45,22.48a.779.779,0,0,1,.606-.31.759.759,0,0,1,.6.291,1.318,1.318,0,0,1,.25.877,1.357,1.357,0,0,1-.256.909.787.787,0,0,1-.613.292.768.768,0,0,1-.6-.282,1.3,1.3,0,0,1-.248-.874A1.349,1.349,0,0,1,45,22.48ZM48.178,24.9v-4.23h-.537V24.9Zm3.009,0h.561a1.137,1.137,0,0,1-.135-.368,7.142,7.142,0,0,1-.034-.916v-.692a2.845,2.845,0,0,0-.027-.478.8.8,0,0,0-.167-.354.874.874,0,0,0-.373-.232,1.937,1.937,0,0,0-.659-.093,2.2,2.2,0,0,0-.72.108,1.039,1.039,0,0,0-.474.309,1.236,1.236,0,0,0-.235.527l.526.069a.783.783,0,0,1,.267-.455.984.984,0,0,1,.559-.128.924.924,0,0,1,.613.176.564.564,0,0,1,.151.447c0,.019,0,.064,0,.135a5.023,5.023,0,0,1-.957.179,4.181,4.181,0,0,0-.478.078,1.37,1.37,0,0,0-.387.17.869.869,0,0,0-.277.3.812.812,0,0,0-.106.411.8.8,0,0,0,.281.631,1.178,1.178,0,0,0,.8.247,1.71,1.71,0,0,0,.593-.1,2.008,2.008,0,0,0,.574-.346A1.08,1.08,0,0,0,51.187,24.9Zm-.153-1.347a1.23,1.23,0,0,1-.086.52.82.82,0,0,1-.356.358,1.131,1.131,0,0,1-.552.132.72.72,0,0,1-.477-.139.437.437,0,0,1-.162-.346.425.425,0,0,1,.075-.247.465.465,0,0,1,.212-.17,2.1,2.1,0,0,1,.468-.1,4.053,4.053,0,0,0,.877-.2Zm1.917-2.285v-.6h-.537v.6Zm0,3.632V21.831h-.537V24.9Zm1.355,0V23.223a1.016,1.016,0,0,1,.25-.8.885.885,0,0,1,.592-.211.714.714,0,0,1,.374.095.505.505,0,0,1,.223.251,1.347,1.347,0,0,1,.063.474V24.9h.537V23.012a2.829,2.829,0,0,0-.03-.506.97.97,0,0,0-.167-.384.823.823,0,0,0-.359-.261,1.36,1.36,0,0,0-.527-.1,1.148,1.148,0,0,0-1.008.506v-.436h-.484V24.9Zm3.8-.444a.371.371,0,0,1-.183-.038.219.219,0,0,1-.093-.1.9.9,0,0,1-.028-.286V22.235h.54v-.4H57.8v-1.07l-.534.312v.758h-.394v.4h.394V24a1.794,1.794,0,0,0,.066.612.5.5,0,0,0,.226.236.943.943,0,0,0,.454.09,2.09,2.09,0,0,0,.406-.046l-.078-.459A1.808,1.808,0,0,1,58.106,24.452Zm.959.265a1.526,1.526,0,0,0,.942.249,1.708,1.708,0,0,0,.668-.125,1.014,1.014,0,0,0,.452-.355A.857.857,0,0,0,61.285,24a.75.75,0,0,0-.129-.445.812.812,0,0,0-.353-.272,6.8,6.8,0,0,0-.8-.241c-.262-.069-.421-.113-.474-.133a.468.468,0,0,1-.206-.139.281.281,0,0,1-.066-.182.338.338,0,0,1,.158-.276.9.9,0,0,1,.528-.119.781.781,0,0,1,.485.133.555.555,0,0,1,.208.37l.525-.069a1.08,1.08,0,0,0-.184-.475.9.9,0,0,0-.417-.282,1.887,1.887,0,0,0-.655-.1,1.707,1.707,0,0,0-.464.062,1.127,1.127,0,0,0-.341.152.844.844,0,0,0-.264.29.768.768,0,0,0-.1.38.756.756,0,0,0,.118.411.793.793,0,0,0,.346.292,5.074,5.074,0,0,0,.82.249,2.381,2.381,0,0,1,.549.176.314.314,0,0,1,.158.277.431.431,0,0,1-.179.342.857.857,0,0,1-.55.145.886.886,0,0,1-.571-.164.709.709,0,0,1-.249-.473l-.531.081A1.136,1.136,0,0,0,59.065,24.716Zm6.27.179a2.988,2.988,0,0,0,.706-.071,1.347,1.347,0,0,0,.479-.209,1.075,1.075,0,0,0,.321-.394,1.205,1.205,0,0,0,.13-.553,1.009,1.009,0,0,0-.214-.641,1.149,1.149,0,0,0-.611-.383,1.072,1.072,0,0,0,.46-.387.931.931,0,0,0,.153-.51,1.049,1.049,0,0,0-.647-.954,2.084,2.084,0,0,0-.8-.129H63.666V24.9Zm-1.09-3.731h.875a2.654,2.654,0,0,1,.666.058.53.53,0,0,1,.3.22.663.663,0,0,1,.1.371.588.588,0,0,1-.112.369.624.624,0,0,1-.332.211,2.218,2.218,0,0,1-.553.049h-.946Zm0,1.778h1.012a2.222,2.222,0,0,1,.641.07.651.651,0,0,1,.347.245.68.68,0,0,1,.126.411.716.716,0,0,1-.087.357.614.614,0,0,1-.221.235.953.953,0,0,1-.334.116,2.623,2.623,0,0,1-.394.019h-1.09Zm3.665,1.61a1.451,1.451,0,0,0,1.075.413,1.593,1.593,0,0,0,.765-.188,1.279,1.279,0,0,0,.535-.527,1.973,1.973,0,0,0,.184-.931,1.545,1.545,0,0,0-.415-1.144,1.447,1.447,0,0,0-1.069-.414,1.507,1.507,0,0,0-1,.341,1.553,1.553,0,0,0-.49,1.261A1.612,1.612,0,0,0,67.909,24.552Zm.407-2.069a.905.905,0,0,1,1.333,0,1.234,1.234,0,0,1,.267.861,1.31,1.31,0,0,1-.265.9.907.907,0,0,1-1.334,0,1.593,1.593,0,0,1,0-1.762Zm2.993,2.069a1.451,1.451,0,0,0,1.075.413,1.593,1.593,0,0,0,.765-.188,1.279,1.279,0,0,0,.535-.527,1.973,1.973,0,0,0,.184-.931,1.545,1.545,0,0,0-.415-1.144,1.447,1.447,0,0,0-1.069-.414,1.511,1.511,0,0,0-1,.341,1.556,1.556,0,0,0-.489,1.261A1.612,1.612,0,0,0,71.309,24.552Zm.407-2.069a.905.905,0,0,1,1.333,0,1.234,1.234,0,0,1,.267.861,1.31,1.31,0,0,1-.265.9.907.907,0,0,1-1.334,0,1.593,1.593,0,0,1,0-1.762ZM75.038,24.9V23.681l.379-.352L76.465,24.9h.663l-1.334-1.927,1.212-1.137h-.7l-1.272,1.247V20.665H74.5V24.9Z" transform="translate(0)" fill="#b62127"/>
</svg>
