<?xml version="1.0" encoding="utf-8"?>
<!-- Generator: Adobe Illustrator 25.0.1, SVG Export Plug-In . SVG Version: 6.00 Build 0)  -->
<svg version="1.1" id="Component_1_42" xmlns="http://www.w3.org/2000/svg" xmlns:xlink="http://www.w3.org/1999/xlink" x="0px"
	 y="0px" viewBox="0 0 132 30" style="enable-background:new 0 0 132 30;" xml:space="preserve">
<style type="text/css">
	.st0{fill:#B17E3B;}
	.st1{enable-background:new    ;}
	.st2{fill:#FFFFFF;}
</style>
<rect id="Rectangle_27" class="st0" width="132" height="30"/>
<g class="st1">
	<path class="st2" d="M26.9,20l-2.7-8.4H26l1.2,4l0.7,2.6h0l0.6-2.6l1.2-4h1.8L28.9,20H26.9z"/>
	<path class="st2" d="M35.7,20.1c-0.6,0-1.1-0.1-1.5-0.3c-0.5-0.2-0.8-0.5-1.2-0.8s-0.6-0.8-0.7-1.4c-0.2-0.5-0.3-1.2-0.3-1.9
		c0-0.7,0.1-1.3,0.3-1.9c0.2-0.5,0.4-1,0.7-1.4s0.7-0.6,1.2-0.8c0.5-0.2,1-0.3,1.5-0.3c0.6,0,1.1,0.1,1.5,0.3
		c0.5,0.2,0.8,0.5,1.2,0.8s0.6,0.8,0.7,1.4c0.2,0.5,0.3,1.2,0.3,1.9c0,0.7-0.1,1.3-0.3,1.9c-0.2,0.5-0.4,1-0.7,1.4s-0.7,0.6-1.2,0.8
		C36.8,20.1,36.3,20.1,35.7,20.1z M35.7,18.5c0.6,0,1-0.2,1.3-0.5c0.3-0.4,0.5-0.9,0.5-1.5v-1.2c0-0.7-0.2-1.2-0.5-1.5
		c-0.3-0.4-0.7-0.5-1.3-0.5c-0.6,0-1,0.2-1.3,0.5C34.1,14,34,14.5,34,15.2v1.2c0,0.7,0.2,1.2,0.5,1.5C34.7,18.3,35.2,18.5,35.7,18.5
		z"/>
	<path class="st2" d="M40.9,20v-8.4h1.8v6.8h3.2V20H40.9z"/>
	<path class="st2" d="M49.9,13.2V20h-1.8v-6.8h-2.3v-1.6h6.4v1.6H49.9z"/>
	<path class="st2" d="M57.8,20l-0.6-2h-2.8l-0.6,2h-1.8l2.8-8.4H57l2.7,8.4H57.8z M55.8,13.3L55.8,13.3l-1,3.2h1.9L55.8,13.3z"/>
	<path class="st2" d="M62.7,20h-1.8v-8.4h4c0.4,0,0.7,0.1,1,0.2s0.6,0.3,0.8,0.5c0.2,0.2,0.4,0.5,0.5,0.8s0.2,0.7,0.2,1.1
		c0,0.6-0.1,1.1-0.4,1.5s-0.6,0.7-1.1,0.9l1.6,3.3h-2L64,16.9h-1.3V20z M64.6,15.4c0.3,0,0.5-0.1,0.6-0.2c0.2-0.1,0.2-0.3,0.2-0.6
		V14c0-0.3-0.1-0.5-0.2-0.6c-0.2-0.1-0.4-0.2-0.6-0.2h-1.9v2.2H64.6z"/>
	<path class="st2" d="M76.9,20l-0.6-2h-2.8l-0.6,2h-1.8l2.8-8.4h2.3l2.7,8.4H76.9z M74.9,13.3L74.9,13.3l-1,3.2h1.9L74.9,13.3z"/>
	<path class="st2" d="M82.7,13.2V20h-1.8v-6.8h-2.3v-1.6H85v1.6H82.7z"/>
	<path class="st2" d="M88,20h-1.8v-8.4h4c0.4,0,0.7,0.1,1,0.2c0.3,0.1,0.6,0.3,0.8,0.5c0.2,0.2,0.4,0.5,0.5,0.8s0.2,0.7,0.2,1.1
		c0,0.6-0.1,1.1-0.4,1.5s-0.6,0.7-1.1,0.9l1.6,3.3h-2l-1.5-3.1H88V20z M90,15.4c0.3,0,0.5-0.1,0.6-0.2c0.2-0.1,0.2-0.3,0.2-0.6V14
		c0-0.3-0.1-0.5-0.2-0.6s-0.4-0.2-0.6-0.2H88v2.2H90z"/>
	<path class="st2" d="M99.5,20l-0.6-2h-2.8l-0.6,2h-1.8l2.8-8.4h2.3l2.7,8.4H99.5z M97.5,13.3L97.5,13.3l-1,3.2h1.9L97.5,13.3z
		 M97.6,11.1l-1.1-0.5l1.2-2.3L99.2,9L97.6,11.1z"/>
	<path class="st2" d="M105.2,20.1c-0.7,0-1.4-0.1-1.9-0.4s-0.9-0.6-1.3-1l1.2-1.2c0.6,0.6,1.3,1,2.1,1c0.4,0,0.8-0.1,1-0.3
		c0.2-0.2,0.3-0.4,0.3-0.7c0-0.2-0.1-0.4-0.2-0.6s-0.4-0.3-0.8-0.3l-0.8-0.1c-0.9-0.1-1.5-0.4-1.9-0.8c-0.4-0.4-0.6-1-0.6-1.7
		c0-0.4,0.1-0.7,0.2-1s0.3-0.6,0.6-0.8c0.3-0.2,0.6-0.4,1-0.5c0.4-0.1,0.8-0.2,1.3-0.2c0.6,0,1.2,0.1,1.7,0.3
		c0.5,0.2,0.9,0.5,1.2,0.9l-1.2,1.2c-0.2-0.2-0.4-0.4-0.7-0.6c-0.3-0.1-0.6-0.2-1.1-0.2c-0.4,0-0.7,0.1-0.9,0.2
		c-0.2,0.1-0.3,0.3-0.3,0.6c0,0.3,0.1,0.5,0.2,0.6s0.4,0.2,0.8,0.3l0.8,0.1c0.9,0.1,1.5,0.4,1.9,0.8s0.6,1,0.6,1.7
		c0,0.4-0.1,0.8-0.2,1.1c-0.1,0.3-0.4,0.6-0.6,0.9c-0.3,0.2-0.6,0.4-1,0.6C106.2,20.1,105.7,20.1,105.2,20.1z"/>
</g>
</svg>
