<svg xmlns="http://www.w3.org/2000/svg" width="36.88" height="36.872" viewBox="0 0 36.88 36.872">
  <path id="instagram-brands_1_" data-name="instagram-brands (1)" d="M18.369,40.807a9.454,9.454,0,1,0,9.453,9.453A9.439,9.439,0,0,0,18.369,40.807Zm0,15.6a6.146,6.146,0,1,1,6.146-6.146A6.157,6.157,0,0,1,18.369,56.407ZM30.414,40.421a2.2,2.2,0,1,1-2.2-2.2A2.2,2.2,0,0,1,30.414,40.421Zm6.261,2.238c-.14-2.954-.815-5.57-2.978-7.726s-4.772-2.83-7.726-2.978c-3.044-.173-12.169-.173-15.213,0-2.945.14-5.562.815-7.726,2.97S.2,39.7.055,42.65c-.173,3.044-.173,12.169,0,15.213.14,2.954.815,5.57,2.978,7.726s4.772,2.83,7.726,2.978c3.044.173,12.169.173,15.213,0,2.954-.14,5.57-.815,7.726-2.978s2.83-4.772,2.978-7.726c.173-3.044.173-12.16,0-15.2ZM32.743,61.13a6.222,6.222,0,0,1-3.5,3.5c-2.427.963-8.186.74-10.869.74s-8.45.214-10.869-.74A6.222,6.222,0,0,1,4,61.13c-.963-2.427-.74-8.186-.74-10.869s-.214-8.45.74-10.869a6.222,6.222,0,0,1,3.5-3.5c2.427-.963,8.186-.74,10.869-.74s8.45-.214,10.869.74a6.222,6.222,0,0,1,3.5,3.5c.963,2.427.74,8.186.74,10.869S33.705,58.711,32.743,61.13Z" transform="translate(0.075 -31.825)" fill="#4d4d4d"/>
</svg>
