<svg xmlns="http://www.w3.org/2000/svg" width="37" height="37" viewBox="0 0 37 37">
  <path id="Path_54" data-name="Path 54" d="M34.357,32H2.635A2.654,2.654,0,0,0,0,34.668V66.332A2.654,2.654,0,0,0,2.635,69H34.357A2.661,2.661,0,0,0,37,66.332V34.668A2.661,2.661,0,0,0,34.357,32ZM11.183,63.714H5.7V46.057h5.492V63.714ZM8.441,43.645a3.18,3.18,0,1,1,3.18-3.18A3.181,3.181,0,0,1,8.441,43.645Zm23.3,20.069H26.255V55.125c0-2.048-.041-4.683-2.849-4.683-2.858,0-3.3,2.23-3.3,4.534v8.738H14.627V46.057h5.261v2.412h.074a5.776,5.776,0,0,1,5.195-2.849c5.55,0,6.582,3.659,6.582,8.416Z" transform="translate(0 -32)" fill="#4d4d4d"/>
</svg>
