<svg id="Group_114" data-name="Group 114" xmlns="http://www.w3.org/2000/svg" width="125.758" height="29.417" viewBox="0 0 125.758 29.417">
  <path id="Path_2" data-name="Path 2" d="M203.81,50.687V44.921h2.028a2.9,2.9,0,0,1,1.107.156,1.164,1.164,0,0,1,.544.553,1.92,1.92,0,0,1,.208.906,1.747,1.747,0,0,1-.315,1.071,1.417,1.417,0,0,1-.939.533,2.355,2.355,0,0,1,.513.484,6.675,6.675,0,0,1,.544.937l.58,1.123h-1.147l-.694-1.254a8.378,8.378,0,0,0-.506-.848.739.739,0,0,0-.288-.239,1.312,1.312,0,0,0-.484-.065h-.192v2.406Zm.959-3.327h.707a3.034,3.034,0,0,0,.861-.071.544.544,0,0,0,.27-.245.865.865,0,0,0,.1-.433.794.794,0,0,0-.129-.469.569.569,0,0,0-.362-.227,6.807,6.807,0,0,0-.7-.02h-.743Z" transform="translate(-166.878 -36.777)" fill="#474847"/>
  <path id="Path_3" data-name="Path 3" d="M230.24,50.706V44.94h3.523v.975H231.2v1.279h2.385v.971H231.2v1.569h2.655v.971Z" transform="translate(-188.519 -36.797)" fill="#474847"/>
  <path id="Path_4" data-name="Path 4" d="M253.32,48.36l.933-.111a1.507,1.507,0,0,0,.342.839.924.924,0,0,0,.7.266.946.946,0,0,0,.7-.237.772.772,0,0,0,.236-.556.608.608,0,0,0-.1-.35.785.785,0,0,0-.346-.248c-.111-.047-.362-.132-.767-.252a2.426,2.426,0,0,1-1.087-.571,1.66,1.66,0,0,1-.437-1.16,1.714,1.714,0,0,1,.207-.824,1.364,1.364,0,0,1,.6-.589,1.994,1.994,0,0,1,.935-.2,1.775,1.775,0,0,1,1.346.477,1.857,1.857,0,0,1,.475,1.268l-.96.051a1.071,1.071,0,0,0-.263-.64.856.856,0,0,0-.609-.194.955.955,0,0,0-.654.208.451.451,0,0,0-.152.362.475.475,0,0,0,.143.35,2.253,2.253,0,0,0,.881.386,4.208,4.208,0,0,1,1.037.415,1.481,1.481,0,0,1,.524.587,2.151,2.151,0,0,1-.036,1.846,1.477,1.477,0,0,1-.642.643,2.286,2.286,0,0,1-1.035.21,1.82,1.82,0,0,1-1.383-.506A2.413,2.413,0,0,1,253.32,48.36Z" transform="translate(-207.417 -36.326)" fill="#474847"/>
  <path id="Path_5" data-name="Path 5" d="M277.993,47.379a4.355,4.355,0,0,1,.218-1.479,2.792,2.792,0,0,1,.446-.8,1.892,1.892,0,0,1,.614-.518,2.2,2.2,0,0,1,1.024-.228,2.039,2.039,0,0,1,1.685.8,3.437,3.437,0,0,1,.631,2.2,3.383,3.383,0,0,1-.631,2.185,2.019,2.019,0,0,1-1.671.79,2.045,2.045,0,0,1-1.685-.785A3.361,3.361,0,0,1,277.993,47.379Zm.988-.04a2.483,2.483,0,0,0,.373,1.486,1.134,1.134,0,0,0,1.886,0,2.533,2.533,0,0,0,.362-1.506,2.448,2.448,0,0,0-.362-1.479,1.174,1.174,0,0,0-1.908,0,2.664,2.664,0,0,0-.348,1.5Z" transform="translate(-227.617 -36.317)" fill="#474847"/>
  <path id="Path_6" data-name="Path 6" d="M307.72,50.919V45.2h.957v4.748h2.385v.971Z" transform="translate(-251.959 -37.009)" fill="#474847"/>
  <path id="Path_7" data-name="Path 7" d="M329.91,44.94h.959v3.124a7.792,7.792,0,0,0,.036.962.981.981,0,0,0,.294.569.9.9,0,0,0,.632.216.786.786,0,0,0,.866-.7v0a8.06,8.06,0,0,0,.042-.979V44.94h.959v3.028a9.313,9.313,0,0,1-.078,1.468,1.755,1.755,0,0,1-.286.725,1.468,1.468,0,0,1-.558.471,2.037,2.037,0,0,1-.906.181,2.219,2.219,0,0,1-1.033-.181,1.557,1.557,0,0,1-.556-.5,1.743,1.743,0,0,1-.268-.64,8.367,8.367,0,0,1-.094-1.462Z" transform="translate(-270.128 -36.797)" fill="#474847"/>
  <path id="Path_8" data-name="Path 8" d="M358.636,48.156l.93.362a2.658,2.658,0,0,1-.712,1.4,1.794,1.794,0,0,1-1.268.458,1.893,1.893,0,0,1-1.557-.785,3.423,3.423,0,0,1-.609-2.147,3.593,3.593,0,0,1,.612-2.234,1.933,1.933,0,0,1,1.611-.8,1.787,1.787,0,0,1,1.415.625,2.425,2.425,0,0,1,.487,1.062l-.94.272a1.3,1.3,0,0,0-.352-.709.906.906,0,0,0-.651-.259,1.011,1.011,0,0,0-.857.46,2.618,2.618,0,0,0-.328,1.491,2.8,2.8,0,0,0,.324,1.557.986.986,0,0,0,.841.466.871.871,0,0,0,.658-.3A1.851,1.851,0,0,0,358.636,48.156Zm-2.024,3.7v-.464a4.807,4.807,0,0,0,.612.043.616.616,0,0,0,.428-.127.3.3,0,0,0,.107-.243.313.313,0,0,0-.1-.232.431.431,0,0,0-.312-.1,1.237,1.237,0,0,0-.424.078l.085-.39a1.392,1.392,0,0,1,.544-.107.82.82,0,0,1,.616.217.779.779,0,0,1-.023,1.087,1.268,1.268,0,0,1-.906.3A2.4,2.4,0,0,1,356.612,51.856Z" transform="translate(-291.015 -36.367)" fill="#474847"/>
  <path id="Path_9" data-name="Path 9" d="M384.987,44.737h-1.044l-.415-1.308h-1.89l-.391,1.308H380.23l1.85-5.766h1.008Zm-3.167-6.085H381.4v-.141a1.055,1.055,0,0,1,.165-.636.511.511,0,0,1,.431-.221.785.785,0,0,1,.21.029,2.447,2.447,0,0,1,.362.169.917.917,0,0,0,.4.141.225.225,0,0,0,.181-.08.479.479,0,0,0,.089-.263h.42a1.376,1.376,0,0,1-.163.759.486.486,0,0,1-.413.228.816.816,0,0,1-.217-.029,4.008,4.008,0,0,1-.371-.161,1.248,1.248,0,0,0-.435-.138.192.192,0,0,0-.161.078A.453.453,0,0,0,381.819,38.652Zm1.4,3.805-.654-2.138-.641,2.138Z" transform="translate(-311.329 -30.828)" fill="#474847"/>
  <path id="Path_10" data-name="Path 10" d="M408.2,47.379a4.357,4.357,0,0,1,.217-1.479,2.842,2.842,0,0,1,.442-.8,1.892,1.892,0,0,1,.614-.518,2.212,2.212,0,0,1,1.024-.228,2.035,2.035,0,0,1,1.68.79,4.139,4.139,0,0,1,.005,4.383,2.022,2.022,0,0,1-1.673.79,2.044,2.044,0,0,1-1.683-.785A3.342,3.342,0,0,1,408.2,47.379Zm.989-.04a2.491,2.491,0,0,0,.371,1.486,1.136,1.136,0,0,0,.948.506,1.122,1.122,0,0,0,.94-.5,2.546,2.546,0,0,0,.362-1.506,2.448,2.448,0,0,0-.362-1.479,1.12,1.12,0,0,0-.931-.487,1.136,1.136,0,0,0-.957.493,2.486,2.486,0,0,0-.371,1.49Z" transform="translate(-334.232 -36.316)" fill="#474847"/>
  <path id="Path_11" data-name="Path 11" d="M448.688,50.706h-1.044l-.415-1.308h-1.9l-.391,1.308H443.92l1.85-5.766h1.015Zm-1.767-2.281-.654-2.138-.641,2.138Z" transform="translate(-363.478 -36.797)" fill="#474847"/>
  <path id="Path_12" data-name="Path 12" d="M473.18,50.919V45.2h.959v4.748h2.385v.971Z" transform="translate(-387.436 -37.009)" fill="#474847"/>
  <path id="Path_13" data-name="Path 13" d="M492.22,50.706V45.915h-1.41V44.94h3.775v.975h-1.406v4.791Z" transform="translate(-401.872 -36.797)" fill="#474847"/>
  <path id="Path_14" data-name="Path 14" d="M515.06,50.706V44.94h3.523v.975h-2.564v1.279H518.4v.971h-2.385v1.569h2.655v.971Z" transform="translate(-421.727 -36.797)" fill="#474847"/>
  <path id="Path_15" data-name="Path 15" d="M539.5,50.687V44.921h2.019a2.9,2.9,0,0,1,1.107.156,1.167,1.167,0,0,1,.544.553,1.938,1.938,0,0,1,.207.906,1.757,1.757,0,0,1-.314,1.071,1.424,1.424,0,0,1-.94.533,2.349,2.349,0,0,1,.515.484,6.719,6.719,0,0,1,.544.937l.58,1.123h-1.147l-.694-1.254a8.364,8.364,0,0,0-.506-.848.739.739,0,0,0-.288-.239,1.31,1.31,0,0,0-.482-.065h-.183v2.406Zm.96-3.327h.708a3.046,3.046,0,0,0,.862-.071.544.544,0,0,0,.268-.245.864.864,0,0,0,.1-.433.794.794,0,0,0-.129-.469.564.564,0,0,0-.362-.227,6.773,6.773,0,0,0-.7-.02h-.747Z" transform="translate(-441.739 -36.777)" fill="#474847"/>
  <path id="Path_16" data-name="Path 16" d="M566,50.706V44.94h.933l1.943,3.851V44.94h.892v5.766H568.8l-1.917-3.76v3.76Z" transform="translate(-463.437 -36.797)" fill="#474847"/>
  <path id="Path_17" data-name="Path 17" d="M594.474,50.706H593.43l-.406-1.308h-1.9l-.391,1.308H589.71l1.852-5.766h1.013Zm-1.767-2.281-.654-2.138-.642,2.138Z" transform="translate(-482.85 -36.797)" fill="#474847"/>
  <path id="Path_18" data-name="Path 18" d="M615.63,50.706V45.915h-1.41V44.94h3.775v.975h-1.4v4.791Z" transform="translate(-502.919 -36.797)" fill="#474847"/>
  <path id="Path_19" data-name="Path 19" d="M638.32,50.706V44.94h.959v5.766Z" transform="translate(-522.652 -36.797)" fill="#474847"/>
  <path id="Path_20" data-name="Path 20" d="M647.693,50.7,646,44.932h1.04l1.2,4.266L649.4,44.93h1.018l-1.7,5.768Z" transform="translate(-528.94 -36.788)" fill="#474847"/>
  <path id="Path_21" data-name="Path 21" d="M672.466,50.706h-1.044l-.406-1.308h-1.908l-.391,1.308H667.7l1.85-5.766h1.013ZM670.7,48.425l-.654-2.138-.642,2.138Z" transform="translate(-546.708 -36.797)" fill="#474847"/>
  <path id="Path_22" data-name="Path 22" d="M203.84,96.941h1.794a3,3,0,0,1,.924.111,1.606,1.606,0,0,1,.734.531,2.674,2.674,0,0,1,.464.935,4.953,4.953,0,0,1,.159,1.363,4.519,4.519,0,0,1-.149,1.227,2.673,2.673,0,0,1-.522,1.018,1.682,1.682,0,0,1-.689.46,2.538,2.538,0,0,1-.87.121H203.84Zm.98.975v3.82h.734a2.286,2.286,0,0,0,.593-.054.854.854,0,0,0,.4-.241,1.3,1.3,0,0,0,.257-.556,4.376,4.376,0,0,0,.1-1.056,4.008,4.008,0,0,0-.1-1.026,1.389,1.389,0,0,0-.279-.558.886.886,0,0,0-.455-.272,3.628,3.628,0,0,0-.8-.056Z" transform="translate(-166.903 -79.373)" fill="#474847"/>
  <path id="Path_23" data-name="Path 23" d="M230.92,102.716V96.95h3.606v.975H231.9V99.2h2.441v.971H231.9v1.569h2.718v.971Z" transform="translate(-189.076 -79.382)" fill="#474847"/>
  <path id="Path_24" data-name="Path 24" d="M266.48,102.929V97.21h.982v4.748H269.9v.971Z" transform="translate(-218.192 -79.595)" fill="#474847"/>
  <path id="Path_25" data-name="Path 25" d="M289.07,102.716V96.95h.982v5.766Z" transform="translate(-236.688 -79.382)" fill="#474847"/>
  <path id="Path_26" data-name="Path 26" d="M299.14,102.716V97.925h-1.45V96.95h3.863v.975h-1.439v4.791Z" transform="translate(-243.746 -79.382)" fill="#474847"/>
  <path id="Path_27" data-name="Path 27" d="M321.76,89.816l.457-1.176h1.046l-.906,1.176Zm.112,6.1V90.146h.982v5.766Z" transform="translate(-263.455 -72.578)" fill="#474847"/>
  <path id="Path_28" data-name="Path 28" d="M334.457,100.14v-.971h2.116v2.3a2.635,2.635,0,0,1-.893.623,2.822,2.822,0,0,1-1.187.27,2.333,2.333,0,0,1-1.33-.381,2.309,2.309,0,0,1-.852-1.087,4.061,4.061,0,0,1-.284-1.537,3.833,3.833,0,0,1,.317-1.6,2.368,2.368,0,0,1,.933-1.075,2.2,2.2,0,0,1,1.163-.286,2.067,2.067,0,0,1,1.415.449,2.119,2.119,0,0,1,.654,1.247l-.975.216a1.251,1.251,0,0,0-.386-.67,1.042,1.042,0,0,0-.709-.246,1.234,1.234,0,0,0-1.024.484,2.318,2.318,0,0,0-.379,1.437,2.558,2.558,0,0,0,.384,1.538,1.2,1.2,0,0,0,1.009.515,1.457,1.457,0,0,0,.618-.145,2.037,2.037,0,0,0,.533-.348v-.725Z" transform="translate(-271.861 -78.926)" fill="#474847"/>
  <path id="Path_29" data-name="Path 29" d="M362,102.716V96.95h.982v5.766Z" transform="translate(-296.403 -79.382)" fill="#474847"/>
  <path id="Path_30" data-name="Path 30" d="M371.423,99.421a4.266,4.266,0,0,1,.223-1.479,2.78,2.78,0,0,1,.453-.792,1.932,1.932,0,0,1,.627-.518,2.309,2.309,0,0,1,1.049-.228,2.107,2.107,0,0,1,1.72.79,3.4,3.4,0,0,1,.645,2.2,3.328,3.328,0,0,1-.641,2.185,2.086,2.086,0,0,1-1.711.79,2.115,2.115,0,0,1-1.725-.785A3.327,3.327,0,0,1,371.423,99.421Zm1.011-.04a2.437,2.437,0,0,0,.382,1.486,1.178,1.178,0,0,0,1.932,0,2.5,2.5,0,0,0,.377-1.506,2.473,2.473,0,0,0-.362-1.479,1.156,1.156,0,0,0-.973-.487,1.171,1.171,0,0,0-.979.493,2.472,2.472,0,0,0-.379,1.493Z" transform="translate(-304.117 -78.934)" fill="#474847"/>
  <path id="Path_31" data-name="Path 31" d="M400.31,100.395l.955-.111a1.5,1.5,0,0,0,.35.839.957.957,0,0,0,.712.266.975.975,0,0,0,.714-.237.758.758,0,0,0,.241-.556.6.6,0,0,0-.1-.35.8.8,0,0,0-.353-.248c-.114-.047-.377-.132-.785-.252a2.438,2.438,0,0,1-1.109-.571,1.631,1.631,0,0,1-.448-1.16,1.7,1.7,0,0,1,.21-.824,1.408,1.408,0,0,1,.607-.583,2.1,2.1,0,0,1,.957-.2,1.667,1.667,0,0,1,1.865,1.745l-.982.051a1.062,1.062,0,0,0-.27-.64.884.884,0,0,0-.622-.194.989.989,0,0,0-.67.208.448.448,0,0,0-.156.362.471.471,0,0,0,.147.35,2.314,2.314,0,0,0,.906.386,4.351,4.351,0,0,1,1.058.415,1.49,1.49,0,0,1,.544.587,1.969,1.969,0,0,1,.194.917,1.944,1.944,0,0,1-.232.93,1.493,1.493,0,0,1-.658.643,2.375,2.375,0,0,1-1.056.21,1.891,1.891,0,0,1-1.417-.506A2.4,2.4,0,0,1,400.31,100.395Z" transform="translate(-327.771 -78.936)" fill="#474847"/>
  <path id="Path_32" data-name="Path 32" d="M437.055,96.941h1.8a3,3,0,0,1,.926.111,1.633,1.633,0,0,1,.725.531,2.675,2.675,0,0,1,.464.935,5.024,5.024,0,0,1,.159,1.363,4.44,4.44,0,0,1-.15,1.227,2.671,2.671,0,0,1-.52,1.018,1.676,1.676,0,0,1-.69.46,2.518,2.518,0,0,1-.868.121H437.05Zm.982.975v3.82h.725a2.3,2.3,0,0,0,.594-.054.857.857,0,0,0,.4-.241,1.294,1.294,0,0,0,.257-.556,4.487,4.487,0,0,0,.1-1.056,4.1,4.1,0,0,0-.1-1.026,1.389,1.389,0,0,0-.279-.558.9.9,0,0,0-.455-.272,3.667,3.667,0,0,0-.806-.056Z" transform="translate(-357.853 -79.373)" fill="#474847"/>
  <path id="Path_33" data-name="Path 33" d="M464.17,102.716V96.95h3.6v.975h-2.622V99.2h2.441v.971h-2.441v1.569h2.718v.971Z" transform="translate(-380.059 -79.382)" fill="#474847"/>
  <path id="Path_34" data-name="Path 34" d="M501.93,100.165l.953.362a2.657,2.657,0,0,1-.725,1.4,1.866,1.866,0,0,1-1.292.458,1.953,1.953,0,0,1-1.593-.785,3.363,3.363,0,0,1-.623-2.147,3.536,3.536,0,0,1,.627-2.234,1.994,1.994,0,0,1,1.649-.8,1.852,1.852,0,0,1,1.45.625,2.407,2.407,0,0,1,.5,1.062l-.971.275a1.281,1.281,0,0,0-.362-.709.931.931,0,0,0-.665-.259,1.04,1.04,0,0,0-.877.46,2.569,2.569,0,0,0-.335,1.491,2.765,2.765,0,0,0,.332,1.557,1.015,1.015,0,0,0,.861.466.906.906,0,0,0,.674-.3A1.837,1.837,0,0,0,501.93,100.165Z" transform="translate(-408.291 -78.952)" fill="#474847"/>
  <path id="Path_35" data-name="Path 35" d="M525.553,99.421a4.263,4.263,0,0,1,.221-1.479,2.782,2.782,0,0,1,.453-.792,1.939,1.939,0,0,1,.629-.518A2.3,2.3,0,0,1,527.9,96.4a2.1,2.1,0,0,1,1.72.79,4.06,4.06,0,0,1,.005,4.383,2.086,2.086,0,0,1-1.711.79,2.113,2.113,0,0,1-1.725-.785A3.312,3.312,0,0,1,525.553,99.421Zm1.011-.04a2.447,2.447,0,0,0,.38,1.486,1.169,1.169,0,0,0,.97.506,1.154,1.154,0,0,0,.962-.5,2.488,2.488,0,0,0,.377-1.506,2.461,2.461,0,0,0-.362-1.479,1.216,1.216,0,0,0-1.952,0A2.476,2.476,0,0,0,526.564,99.381Z" transform="translate(-430.317 -78.934)" fill="#474847"/>
  <path id="Path_36" data-name="Path 36" d="M555.87,102.716V96.95h.955l1.993,3.851V96.95h.906v5.766h-.984l-1.959-3.76v3.76Z" transform="translate(-455.142 -79.382)" fill="#474847"/>
  <path id="Path_37" data-name="Path 37" d="M581.51,100.362l.955-.111a1.5,1.5,0,0,0,.35.839.956.956,0,0,0,.71.266.982.982,0,0,0,.725-.237.764.764,0,0,0,.241-.556.6.6,0,0,0-.1-.35.805.805,0,0,0-.362-.248c-.116-.047-.377-.132-.786-.252a2.49,2.49,0,0,1-1.107-.571,1.631,1.631,0,0,1-.448-1.16,1.678,1.678,0,0,1,.21-.825,1.391,1.391,0,0,1,.609-.591,2.1,2.1,0,0,1,.957-.2,1.831,1.831,0,0,1,1.377.477,1.813,1.813,0,0,1,.486,1.268l-.98.051a1.073,1.073,0,0,0-.27-.64.889.889,0,0,0-.623-.194.988.988,0,0,0-.669.208.442.442,0,0,0-.156.362.469.469,0,0,0,.145.35,2.314,2.314,0,0,0,.906.386,4.356,4.356,0,0,1,1.06.415,1.486,1.486,0,0,1,.544.587,1.945,1.945,0,0,1,.194.917,1.922,1.922,0,0,1-.232.93,1.481,1.481,0,0,1-.656.643,2.383,2.383,0,0,1-1.058.21,1.9,1.9,0,0,1-1.417-.506A2.347,2.347,0,0,1,581.51,100.362Z" transform="translate(-476.136 -78.903)" fill="#474847"/>
  <path id="Path_38" data-name="Path 38" d="M607.83,96.95h.982v3.124a7.792,7.792,0,0,0,.036.962.969.969,0,0,0,.3.569.928.928,0,0,0,.649.216.882.882,0,0,0,.629-.2.821.821,0,0,0,.255-.5,7.616,7.616,0,0,0,.044-.979V96.95h.982v3.028a9.249,9.249,0,0,1-.08,1.468,1.738,1.738,0,0,1-.294.725,1.5,1.5,0,0,1-.573.471,2.116,2.116,0,0,1-.935.181,2.324,2.324,0,0,1-1.057-.19,1.585,1.585,0,0,1-.569-.5,1.758,1.758,0,0,1-.275-.64,8.335,8.335,0,0,1-.1-1.462Z" transform="translate(-497.685 -79.382)" fill="#474847"/>
  <path id="Path_39" data-name="Path 39" d="M634.88,102.716V96.95h1.471l.882,3.934.873-3.934h1.471v5.766h-.906v-4.53l-.966,4.53h-.944l-.962-4.53v4.53Z" transform="translate(-519.835 -79.382)" fill="#474847"/>
  <path id="Path_40" data-name="Path 40" d="M665.073,99.421a4.311,4.311,0,0,1,.221-1.479,2.819,2.819,0,0,1,.453-.792,1.937,1.937,0,0,1,.629-.518,2.3,2.3,0,0,1,1.047-.228,2.1,2.1,0,0,1,1.72.79,4.06,4.06,0,0,1,.005,4.383,2.087,2.087,0,0,1-1.711.79,2.113,2.113,0,0,1-1.725-.785A3.313,3.313,0,0,1,665.073,99.421Zm1.011-.04a2.446,2.446,0,0,0,.381,1.486,1.169,1.169,0,0,0,.969.506,1.154,1.154,0,0,0,.962-.5,2.489,2.489,0,0,0,.377-1.506,2.46,2.46,0,0,0-.362-1.479,1.216,1.216,0,0,0-1.952,0,2.477,2.477,0,0,0-.375,1.495Z" transform="translate(-544.556 -78.934)" fill="#474847"/>
  <path id="Path_41" data-name="Path 41" d="M14.709,29.417A14.709,14.709,0,1,1,29.417,14.709,14.709,14.709,0,0,1,14.709,29.417Zm0-27.8a13.1,13.1,0,1,0,13.1,13.1v0A13.11,13.11,0,0,0,14.709,1.613Z" transform="translate(0 0)" fill="#474847"/>
  <path id="Path_42" data-name="Path 42" d="M37.868,81.343c0,1.524-2.2.1-3.987-1.127s-4.179-2.068-2.459-3.329c.6-.437,1.149-.75,3.987,1.129C38.41,80.008,37.872,79.945,37.868,81.343Z" transform="translate(-25.244 -62.683)" fill="#474847"/>
  <path id="Path_43" data-name="Path 43" d="M66,31.381c.063-1.524,2.205-.02,3.936,1.268s4.1,2.222,2.332,3.418c-.611.413-1.176.707-3.936-1.268C65.4,32.695,65.934,32.778,66,31.381Z" transform="translate(-53.974 -25.169)" fill="#474847"/>
  <path id="Path_44" data-name="Path 44" d="M47.21,52.958s1.953,1.073,3.532,2.174a7.56,7.56,0,0,0,2.2-.886l8.491,5.132s2.345.507,1.393-1.837l-8.618-5.074.149-2.2a18.91,18.91,0,0,1-3.57-2.461A7.431,7.431,0,0,0,47.21,52.958Z" transform="translate(-38.655 -39.147)" fill="#474847"/>
  <rect id="Rectangle_29" data-name="Rectangle 29" width="10.836" height="0.951" transform="translate(5.355 22.192)" fill="#474847"/>
  <rect id="Rectangle_30" data-name="Rectangle 30" width="9.252" height="1.919" transform="translate(6.177 20.273)" fill="#474847"/>
  <path id="Path_45" data-name="Path 45" d="M117.006,3.139l-.953,1.384-6.8,9.9a1.528,1.528,0,0,1-2.374.3L102.464,9.65l0,0A1.512,1.512,0,1,1,104.6,7.513l3.2,3.684,6.591-9.584a1.544,1.544,0,0,1,2.069-.544A1.528,1.528,0,0,1,117.006,3.139Z" transform="translate(-83.541 -0.709)" fill="#4e9b45"/>
</svg>
