<svg xmlns="http://www.w3.org/2000/svg" viewBox="0 0 90 26"><defs><style>.cls-1{fill:#b17e3b;}.cls-2{isolation:isolate;}.cls-3{fill:#fff;}</style></defs><g id="Layer_2" data-name="Layer 2"><g id="Layer_1-2" data-name="Layer 1"><rect class="cls-1" width="90" height="26"/><g id="Ver_mais" data-name="Ver mais" class="cls-2"><g class="cls-2"><path class="cls-3" d="M26.15,17l-2-6.28h1.38l.94,3,.49,2h0l.48-2,.93-3h1.34l-2,6.28Z"/><path class="cls-3" d="M30.54,17V10.72h4.28v1.21H31.91v1.28H34.4v1.22H31.91v1.36h2.91V17Z"/><path class="cls-3" d="M37.37,17H36V10.72h3a2.22,2.22,0,0,1,.79.14,1.78,1.78,0,0,1,.6.41,1.94,1.94,0,0,1,.38.64,2.3,2.3,0,0,1,.13.81,2.14,2.14,0,0,1-.28,1.12,1.61,1.61,0,0,1-.86.69L41,17H39.45l-1.1-2.3h-1Zm1.44-3.46a.74.74,0,0,0,.49-.15.63.63,0,0,0,.17-.47v-.39a.63.63,0,0,0-.17-.47.74.74,0,0,0-.49-.15H37.37v1.63Z"/><path class="cls-3" d="M48.89,12.88h0l-.46.92L47.18,16,46,13.8l-.48-1h0V17H44.2V10.72h1.45l1.53,2.94h0l1.52-2.94h1.46V17H48.89Z"/><path class="cls-3" d="M55.44,17,55,15.51h-2.1L52.44,17H51.05l2.07-6.28h1.7l2,6.28ZM54,12h0l-.7,2.38h1.44Z"/><path class="cls-3" d="M57.49,17V15.91h.81v-4.1h-.81V10.72h3v1.09h-.81v4.1h.81V17Z"/><path class="cls-3" d="M63.65,17.11a3.12,3.12,0,0,1-1.4-.29,3.26,3.26,0,0,1-1-.73l.9-.91a2,2,0,0,0,1.57.71,1.18,1.18,0,0,0,.75-.2.69.69,0,0,0,.24-.55.64.64,0,0,0-.14-.43,1,1,0,0,0-.59-.24l-.62-.08a2.38,2.38,0,0,1-1.46-.6,1.74,1.74,0,0,1-.46-1.27,1.77,1.77,0,0,1,.16-.77,1.73,1.73,0,0,1,.46-.61,2.09,2.09,0,0,1,.74-.39,3.35,3.35,0,0,1,1-.14,3.44,3.44,0,0,1,1.25.22,2.67,2.67,0,0,1,.92.66l-.91.92a1.87,1.87,0,0,0-.54-.42,1.74,1.74,0,0,0-.81-.16,1.16,1.16,0,0,0-.68.16.5.5,0,0,0-.22.44.54.54,0,0,0,.17.46,1.17,1.17,0,0,0,.57.21l.62.1a2.6,2.6,0,0,1,1.44.6,1.62,1.62,0,0,1,.47,1.26,2,2,0,0,1-.16.83,1.9,1.9,0,0,1-.47.65,2.28,2.28,0,0,1-.77.42A3.41,3.41,0,0,1,63.65,17.11Z"/></g></g></g></g></svg>